HIERARCHY
ROOT Hips
{
  OFFSET 5.72205e-005 65.662 3.42586
  CHANNELS 6 Xposition Yposition Zposition Zrotation Xrotation Yrotation
  JOINT Chest
  {
    OFFSET 0 8.7983 -4.7612
    CHANNELS 3 Zrotation Xrotation Yrotation
    JOINT Chest2
    {
      OFFSET 0 8.0291 0.4195
      CHANNELS 3 Zrotation Xrotation Yrotation
      JOINT Chest3
      {
        OFFSET 0 9.9351 -2.2114
        CHANNELS 3 Zrotation Xrotation Yrotation
        JOINT Neck
        {
          OFFSET 0 22.3885 -0.4656
          CHANNELS 3 Zrotation Xrotation Yrotation
          JOINT Head
          {
            OFFSET -0.0001 12.643 3.4389
            CHANNELS 3 Zrotation Xrotation Yrotation
            End Site
            {
              OFFSET 0.0001 17.6655 0.5274
            }
          }
        }
        JOINT LeftCollar
        {
          OFFSET 2.2603 21.606 7.4023
          CHANNELS 3 Zrotation Xrotation Yrotation
          JOINT LeftShoulder
          {
            OFFSET 13.5163 -1.1332 -5.0146
            CHANNELS 3 Zrotation Xrotation Yrotation
            JOINT LeftElbow
            {
              OFFSET -0.0995 -28.05 -0.2431
              CHANNELS 3 Zrotation Xrotation Yrotation
              JOINT LeftWrist
              {
                OFFSET 0.0679 -23.3996 -0.1402
                CHANNELS 3 Zrotation Xrotation Yrotation
                JOINT LeftFinger1
                {
                  OFFSET 0.7932 -9.069 2.5189
                  CHANNELS 3 Zrotation Xrotation Yrotation
                  JOINT LeftFinger11
                  {
                    OFFSET -0.8272 -3.3923 0.5977
                    CHANNELS 3 Zrotation Xrotation Yrotation
                    JOINT LeftFinger12
                    {
                      OFFSET -0.5649 -2.3158 0.4082
                      CHANNELS 3 Zrotation Xrotation Yrotation
                      End Site
                      {
                        OFFSET -0.4919 -1.6479 0.2673
                      }
                    }
                  }
                }
                JOINT LeftFinger2
                {
                  OFFSET 0.9159 -9.2044 0.2193
                  CHANNELS 3 Zrotation Xrotation Yrotation
                  JOINT LeftFinger21
                  {
                    OFFSET 0.0117 -4.1944 -0.0248
                    CHANNELS 3 Zrotation Xrotation Yrotation
                    JOINT LeftFinger22
                    {
                      OFFSET 0.0071 -2.3249 -0.0142
                      CHANNELS 3 Zrotation Xrotation Yrotation
                      End Site
                      {
                        OFFSET -0.1475 -2.0882 0.0028
                      }
                    }
                  }
                }
                JOINT LeftFinger3
                {
                  OFFSET 0.6113 -8.7231 -2.0637
                  CHANNELS 3 Zrotation Xrotation Yrotation
                  JOINT LeftFinger31
                  {
                    OFFSET -0.1927 -3.8059 -0.2383
                    CHANNELS 3 Zrotation Xrotation Yrotation
                    JOINT LeftFinger32
                    {
                      OFFSET -0.1091 -2.1688 -0.1362
                      CHANNELS 3 Zrotation Xrotation Yrotation
                      End Site
                      {
                        OFFSET -0.2358 -1.9176 -0.0906
                      }
                    }
                  }
                }
                JOINT LeftFinger4
                {
                  OFFSET -0.6151 -8.0947 -3.5641
                  CHANNELS 3 Zrotation Xrotation Yrotation
                  JOINT LeftFinger41
                  {
                    OFFSET -0.4882 -2.341 -0.6462
                    CHANNELS 3 Zrotation Xrotation Yrotation
                    JOINT LeftFinger42
                    {
                      OFFSET -0.3575 -1.7167 -0.4742
                      CHANNELS 3 Zrotation Xrotation Yrotation
                      End Site
                      {
                        OFFSET -0.4187 -1.5237 -0.3496
                      }
                    }
                  }
                }
                JOINT LeftFinger0
                {
                  OFFSET -1.42 -1.8761 1.4223
                  CHANNELS 3 Zrotation Xrotation Yrotation
                  JOINT LeftFinger01
                  {
                    OFFSET -1.1471 -3.4929 2.6334
                    CHANNELS 3 Zrotation Xrotation Yrotation
                    JOINT LeftFinger02
                    {
                      OFFSET -0.823 -2.3 1.6571
                      CHANNELS 3 Zrotation Xrotation Yrotation
                      End Site
                      {
                        OFFSET -0.5822 -1.6914 1.1582
                      }
                    }
                  }
                }
              }
            }
          }
        }
        JOINT RightCollar
        {
          OFFSET -2.2603 21.606 7.4023
          CHANNELS 3 Zrotation Xrotation Yrotation
          JOINT RightShoulder
          {
            OFFSET -13.5187 -1.1334 -5.0155
            CHANNELS 3 Zrotation Xrotation Yrotation
            JOINT RightElbow
            {
              OFFSET 0.0994 -28.0499 -0.2431
              CHANNELS 3 Zrotation Xrotation Yrotation
              JOINT RightWrist
              {
                OFFSET -0.0679 -23.3996 -0.1402
                CHANNELS 3 Zrotation Xrotation Yrotation
                JOINT RightFinger1
                {
                  OFFSET -0.7932 -9.0691 2.5189
                  CHANNELS 3 Zrotation Xrotation Yrotation
                  JOINT RightFinger11
                  {
                    OFFSET 0.8272 -3.3923 0.5977
                    CHANNELS 3 Zrotation Xrotation Yrotation
                    JOINT RightFinger12
                    {
                      OFFSET 0.565 -2.3158 0.4082
                      CHANNELS 3 Zrotation Xrotation Yrotation
                      End Site
                      {
                        OFFSET 0.4919 -1.6479 0.2673
                      }
                    }
                  }
                }
                JOINT RightFinger2
                {
                  OFFSET -0.916 -9.2044 0.2193
                  CHANNELS 3 Zrotation Xrotation Yrotation
                  JOINT RightFinger21
                  {
                    OFFSET -0.0117 -4.1944 -0.0248
                    CHANNELS 3 Zrotation Xrotation Yrotation
                    JOINT RightFinger22
                    {
                      OFFSET -0.0071 -2.3249 -0.0142
                      CHANNELS 3 Zrotation Xrotation Yrotation
                      End Site
                      {
                        OFFSET 0.1475 -2.0882 0.0028
                      }
                    }
                  }
                }
                JOINT RightFinger3
                {
                  OFFSET -0.6113 -8.7231 -2.0637
                  CHANNELS 3 Zrotation Xrotation Yrotation
                  JOINT RightFinger31
                  {
                    OFFSET 0.1927 -3.8059 -0.2383
                    CHANNELS 3 Zrotation Xrotation Yrotation
                    JOINT RightFinger32
                    {
                      OFFSET 0.1091 -2.1688 -0.1362
                      CHANNELS 3 Zrotation Xrotation Yrotation
                      End Site
                      {
                        OFFSET 0.2358 -1.9176 -0.0906
                      }
                    }
                  }
                }
                JOINT RightFinger4
                {
                  OFFSET 0.6151 -8.0947 -3.564
                  CHANNELS 3 Zrotation Xrotation Yrotation
                  JOINT RightFinger41
                  {
                    OFFSET 0.4882 -2.341 -0.6462
                    CHANNELS 3 Zrotation Xrotation Yrotation
                    JOINT RightFinger42
                    {
                      OFFSET 0.3574 -1.7166 -0.4742
                      CHANNELS 3 Zrotation Xrotation Yrotation
                      End Site
                      {
                        OFFSET 0.4187 -1.5237 -0.3496
                      }
                    }
                  }
                }
                JOINT RightFinger0
                {
                  OFFSET 1.4199 -1.8761 1.4221
                  CHANNELS 3 Zrotation Xrotation Yrotation
                  JOINT RightFinger01
                  {
                    OFFSET 1.1472 -3.4929 2.6336
                    CHANNELS 3 Zrotation Xrotation Yrotation
                    JOINT RightFinger02
                    {
                      OFFSET 0.8229 -2.3 1.6571
                      CHANNELS 3 Zrotation Xrotation Yrotation
                      End Site
                      {
                        OFFSET 0.5822 -1.6914 1.1582
                      }
                    }
                  }
                }
              }
            }
          }
        }
      }
    }
  }
  JOINT RightHip
  {
    OFFSET -9.412 3.9771 -0.7758
    CHANNELS 3 Zrotation Xrotation Yrotation
    JOINT RightKnee
    {
      OFFSET -0.7531 -40.938 0
      CHANNELS 3 Zrotation Xrotation Yrotation
      JOINT RightAnkle
      {
        OFFSET 0 -40.1986 0
        CHANNELS 3 Zrotation Xrotation Yrotation
        JOINT RightToe
        {
          OFFSET 0 -4.4182 9.239
          CHANNELS 3 Zrotation Xrotation Yrotation
          End Site
          {
            OFFSET 0 0 6.1981
          }
        }
      }
    }
  }
  JOINT LeftHip
  {
    OFFSET 9.4119 3.9773 -0.7758
    CHANNELS 3 Zrotation Xrotation Yrotation
    JOINT LeftKnee
    {
      OFFSET 0.7532 -40.9383 0
      CHANNELS 3 Zrotation Xrotation Yrotation
      JOINT LeftAnkle
      {
        OFFSET 0 -40.1986 0
        CHANNELS 3 Zrotation Xrotation Yrotation
        JOINT LeftToe
        {
          OFFSET 0 -4.4182 9.239
          CHANNELS 3 Zrotation Xrotation Yrotation
          End Site
          {
            OFFSET 0 0 6.1981
          }
        }
      }
    }
  }
}
MOTION
Frames:	4
Frame Time:	0.0333333
0.256138 -7.93565 9.65843 179.995 -89.9981 179.995 1.99979 -0.0143759 0.199512 3.99963 -0.0217702 0.399404 3.99963 -0.0217844 0.399404 -4.01884e-005 27.9975 -2.88943e-006 -2.47227e-007 15.997 -5.39443e-007 -4.37505e-005 -6.34723e-006 -12.5014 62.7278 26.491 -3.55666 1.95011 -20.5903 -19.1435 -22.6367 4.13597 0.117405 1.90922e-006 2.62053e-006 1.62493e-006 5.92207e-007 1.54436e-006 -2.96409e-006 -3.18055e-015 -3.18055e-015 6.36111e-015 1.90922e-006 2.62053e-006 1.62493e-006 -0.0127867 0.00232223 9.08662e-005 -3.18055e-015 0 -0 1.90922e-006 2.62053e-006 1.62493e-006 -0.0160967 0.00299775 0.000857285 2.799e-006 6.05927e-008 -2.82114e-006 1.90922e-006 2.62053e-006 1.62493e-006 -0.0127062 0.00314585 0.00285322 2.44199e-006 -3.55668e-006 3.33094e-006 1.90922e-006 2.62053e-006 1.62493e-006 5.92207e-007 1.54436e-006 -2.96409e-006 -3.18055e-015 -3.18055e-015 6.36111e-015 -0.878597 -9.83523 6.886 -98.1105 -34.2626 -66.1251 171.609 -52.4075 151.144 -7.27933 -16.4865 -0.014335 4.55987e-006 8.67556e-007 -2.17669e-006 -6.36111e-015 1.27222e-014 3.18055e-015 1.72419e-006 4.08305e-007 2.47628e-006 4.55987e-006 8.67556e-007 -2.17669e-006 0.0129427 0.00231378 -9.07268e-005 1.06865e-005 7.16474e-006 -5.93866e-007 4.55987e-006 8.67556e-007 -2.17669e-006 0.016319 0.00302352 -0.000865361 9.72288e-006 1.47001e-005 5.80376e-007 4.55987e-006 8.67556e-007 -2.17669e-006 0.0145873 0.00368296 -0.00325579 2.58543e-006 -1.16919e-007 3.71473e-006 4.55987e-006 8.67556e-007 -2.17669e-006 -6.36111e-015 1.27222e-014 3.18055e-015 1.72419e-006 4.08305e-007 2.47628e-006 -21.6735 -37.4419 -28.9569 -179.999 81.4239 177.549 -2.43595 17.1189 -1.26798 2.78299e-015 3.18055e-015 1.59028e-015 11.3424 -0.959959 0.130717 -0.000931838 10.7167 10.5593 8.92972 39.4883 -4.91055 6.64136e-007 -2.35212e-007 -1.26757e-006 
0.255631 -7.93712 9.65843 179.995 -89.9981 179.995 1.99979 -0.0143759 0.199512 3.99963 -0.0217702 0.399404 3.99963 -0.0217844 0.399404 -4.01884e-005 27.9975 -2.88943e-006 -2.47227e-007 15.997 -5.39443e-007 -4.37505e-005 -6.34723e-006 -12.5014 62.7278 26.491 -3.55666 1.73964 -20.884 -19.2158 -22.6366 4.13595 0.117397 3.18055e-015 -3.18055e-015 -6.36111e-015 -1.02886e-005 1.68614e-005 9.57225e-006 -3.18055e-015 9.54166e-015 -1.27222e-014 3.18055e-015 -3.18055e-015 -6.36111e-015 -0.0128285 0.00234066 9.3236e-005 3.18055e-015 3.18055e-015 -6.36111e-015 3.18055e-015 -3.18055e-015 -6.36111e-015 -0.0160485 0.00299423 0.000865325 3.18055e-015 0 3.18055e-015 3.18055e-015 -3.18055e-015 -6.36111e-015 -0.0126379 0.00315148 0.00284158 -6.36111e-015 6.36111e-015 -6.36111e-015 3.18055e-015 -3.18055e-015 -6.36111e-015 -1.02886e-005 1.68614e-005 9.57225e-006 -3.18055e-015 9.54166e-015 -1.27222e-014 -0.878597 -9.83523 6.886 -98.1105 -34.2626 -66.1251 171.577 -52.3928 150.71 -7.27935 -16.4865 -0.0143482 -1.4345e-006 -1.43837e-006 -5.0395e-008 -3.18055e-015 9.54166e-015 -6.36111e-015 7.57597e-007 -8.50766e-007 3.65692e-006 -1.4345e-006 -1.43837e-006 -5.0395e-008 0.0129433 0.00233069 -8.82997e-005 2.87732e-006 -2.42283e-006 6.17152e-006 -1.4345e-006 -1.43837e-006 -5.0395e-008 0.0163067 0.00302358 -0.000875316 4.41507e-006 -4.09493e-007 3.80953e-006 -1.4345e-006 -1.43837e-006 -5.0395e-008 0.0145987 0.00367955 -0.00326629 1.7241e-006 4.66385e-007 2.48892e-006 -1.4345e-006 -1.43837e-006 -5.0395e-008 -3.18055e-015 9.54166e-015 -6.36111e-015 7.57597e-007 -8.50766e-007 3.65692e-006 -21.3602 -37.4987 -28.4089 -179.999 81.4273 177.549 -2.43615 17.1148 -1.26806 -4.86844e-006 2.01967e-006 3.02077e-007 11.3632 -0.954624 0.129996 -0.000888154 10.7079 10.294 8.96445 39.5033 -4.92004 -3.27471e-007 2.73568e-006 2.70786e-007 
0.255213 -7.9383 9.65843 -180 -89.9981 -180 1.99979 -0.0143759 0.199511 3.99963 -0.0217702 0.399404 3.99963 -0.0217845 0.399404 -4.24356e-005 27.9976 -3.15495e-006 -2.15353e-007 15.997 1.12754e-006 -4.37643e-005 -6.11275e-006 -12.5014 62.7278 26.4909 -3.55666 1.5679 -21.1224 -19.2757 -22.6366 4.13596 0.117407 3.60165e-006 7.68399e-006 2.40636e-006 5.25689e-006 6.5221e-007 -1.86985e-006 -2.83307e-007 5.32298e-006 1.48152e-006 3.60165e-006 7.68399e-006 2.40636e-006 -0.012801 0.0023223 8.73382e-005 3.04208e-006 4.70373e-006 -2.00385e-006 3.60165e-006 7.68399e-006 2.40636e-006 -0.0159727 0.00297786 0.000850994 1.27222e-014 0 1.27222e-014 3.60165e-006 7.68399e-006 2.40636e-006 -0.0124853 0.00310115 0.00280571 -3.18055e-015 9.54166e-015 3.18055e-015 3.60165e-006 7.68399e-006 2.40636e-006 5.25689e-006 6.5221e-007 -1.86985e-006 -2.83307e-007 5.32298e-006 1.48152e-006 -0.878597 -9.83523 6.886 -98.1105 -34.2626 -66.1251 171.552 -52.3808 150.358 -7.27935 -16.4864 -0.0143338 3.18055e-015 3.18055e-015 -6.36111e-015 2.11445e-006 -2.34123e-006 2.50136e-006 -9.68899e-007 1.65912e-006 1.16311e-006 3.18055e-015 3.18055e-015 -6.36111e-015 0.0129598 0.00230762 -7.5059e-005 -1.44068e-006 1.7973e-006 -8.36797e-008 3.18055e-015 3.18055e-015 -6.36111e-015 0.0163188 0.0030254 -0.000872029 -9.54166e-015 -3.18055e-015 3.18055e-015 3.18055e-015 3.18055e-015 -6.36111e-015 0.0146057 0.00368126 -0.00326692 -5.78281e-007 -3.9443e-006 1.16543e-006 3.18055e-015 3.18055e-015 -6.36111e-015 2.11445e-006 -2.34123e-006 2.50136e-006 -9.68899e-007 1.65912e-006 1.16311e-006 -21.105 -37.543 -27.963 -179.999 81.4303 177.549 -2.4363 17.1115 -1.26814 2.39913e-007 5.13729e-008 8.11648e-007 11.3802 -0.990157 0.129059 -0.000838837 10.7814 10.0786 8.98015 39.4758 -4.91952 5.39995e-007 5.52805e-006 3.04408e-006 
0.254789 -7.93948 9.65843 179.995 -89.9981 179.995 1.99979 -0.0143759 0.199512 3.99963 -0.0217702 0.399404 3.99963 -0.0217844 0.399404 -4.01884e-005 27.9975 -2.88943e-006 -2.47227e-007 15.997 -5.39443e-007 -4.37505e-005 -6.34723e-006 -12.5014 62.7278 26.4909 -3.55665 1.39556 -21.3607 -19.3365 -22.6366 4.13598 0.117416 -3.53113e-031 6.36111e-015 3.18055e-015 -1.9412e-006 -1.2502e-006 -1.6114e-006 3.18055e-015 6.36111e-015 -3.18055e-015 -3.53113e-031 6.36111e-015 3.18055e-015 -0.0128834 0.00233468 8.75193e-005 -4.95222e-006 5.66906e-006 -1.88552e-006 -3.53113e-031 6.36111e-015 3.18055e-015 -0.0159994 0.00299201 0.000852567 9.54166e-015 1.59028e-014 -6.36111e-015 -3.53113e-031 6.36111e-015 3.18055e-015 -0.0125513 0.00311983 0.00281588 -3.18055e-015 -6.36111e-015 -9.54166e-015 -3.53113e-031 6.36111e-015 3.18055e-015 -1.9412e-006 -1.2502e-006 -1.6114e-006 3.18055e-015 6.36111e-015 -3.18055e-015 -0.878597 -9.83523 6.886 -98.1104 -34.2626 -66.1251 171.527 -52.3687 150.006 -7.27936 -16.4865 -0.0143506 -6.36111e-015 3.18055e-015 -3.18055e-015 4.78706e-007 3.67459e-006 1.27483e-006 3.18055e-015 0 3.18055e-015 -6.36111e-015 3.18055e-015 -3.18055e-015 0.0129822 0.00232813 -7.60014e-005 -0 -3.18055e-015 -0 -6.36111e-015 3.18055e-015 -3.18055e-015 0.0163563 0.00304623 -0.000868946 1.27222e-014 -1.27222e-014 9.54166e-015 -6.36111e-015 3.18055e-015 -3.18055e-015 0.0145942 0.00368447 -0.00324923 6.36111e-015 0 -0 -6.36111e-015 3.18055e-015 -3.18055e-015 4.78706e-007 3.67459e-006 1.27483e-006 3.18055e-015 0 3.18055e-015 -20.8487 -37.5865 -27.5161 -179.999 81.4327 177.549 -2.43648 17.1082 -1.2682 -1.55042e-006 -3.56704e-007 3.71153e-007 11.3972 -0.981455 0.12852 -0.000940315 10.7655 9.86286 9.0097 39.4922 -4.92813 1.37173e-006 1.6634e-005 -3.9072e-006 
